HIERARCHY
ROOT Hips
{
	OFFSET 0.00000 0.00000 0.00000
	CHANNELS 6 Xposition Yposition Zposition Zrotation Yrotation Xrotation 
	JOINT LHipJoint
	{
		OFFSET 0 0 0
		CHANNELS 3 Zrotation Yrotation Xrotation
		JOINT LeftUpLeg
		{
			OFFSET 1.56857 -1.73443 1.15205
			CHANNELS 3 Zrotation Yrotation Xrotation
			JOINT LeftLeg
			{
				OFFSET 2.39362 -6.57643 0.00000
				CHANNELS 3 Zrotation Yrotation Xrotation
				JOINT LeftFoot
				{
					OFFSET 2.50952 -6.89485 0.00000
					CHANNELS 3 Zrotation Yrotation Xrotation
					JOINT LeftToeBase
					{
						OFFSET 0.17171 -0.47178 1.88682
						CHANNELS 3 Zrotation Yrotation Xrotation
						End Site
						{
							OFFSET 0.00000 -0.00000 0.98146
						}
					}
				}
			}
		}
	}
	JOINT RHipJoint
	{
		OFFSET 0 0 0
		CHANNELS 3 Zrotation Yrotation Xrotation
		JOINT RightUpLeg
		{
			OFFSET -1.28153 -1.73443 1.15205
			CHANNELS 3 Zrotation Yrotation Xrotation
			JOINT RightLeg
			{
				OFFSET -2.26861 -6.23296 0.00000
				CHANNELS 3 Zrotation Yrotation Xrotation
				JOINT RightFoot
				{
					OFFSET -2.54143 -6.98254 0.00000
					CHANNELS 3 Zrotation Yrotation Xrotation
					JOINT RightToeBase
					{
						OFFSET -0.23309 -0.64041 1.93119
						CHANNELS 3 Zrotation Yrotation Xrotation
						End Site
						{
							OFFSET -0.00000 -0.00000 1.02013
						}
					}
				}
			}
		}
	}
	JOINT LowerBack
	{
		OFFSET 0 0 0
		CHANNELS 3 Zrotation Yrotation Xrotation
		JOINT Spine
		{
			OFFSET -0.07096 2.10460 -0.27878
			CHANNELS 3 Zrotation Yrotation Xrotation
			JOINT Spine1
			{
				OFFSET -0.00826 2.13662 -0.08279
				CHANNELS 3 Zrotation Yrotation Xrotation
				JOINT Neck
				{
					OFFSET 0 0 0
					CHANNELS 3 Zrotation Yrotation Xrotation
					JOINT Neck1
					{
						OFFSET 0.03239 1.77799 0.24435
						CHANNELS 3 Zrotation Yrotation Xrotation
						JOINT Head
						{
							OFFSET 0.01026 1.74194 -0.49664
							CHANNELS 3 Zrotation Yrotation Xrotation
							End Site
							{
								OFFSET 0.00170 1.83057 -0.19653
							}
						}
					}
				}
				JOINT LeftShoulder
				{
					OFFSET 0 0 0
					CHANNELS 3 Zrotation Yrotation Xrotation
					JOINT LeftArm
					{
						OFFSET 3.19178 1.35907 -0.31412
						CHANNELS 3 Zrotation Yrotation Xrotation
						JOINT LeftForeArm
						{
							OFFSET 4.85247 -0.00000 -0.00000
							CHANNELS 3 Zrotation Yrotation Xrotation
							JOINT LeftHand
							{
								OFFSET 3.55584 -0.00000 0.00000
								CHANNELS 3 Zrotation Yrotation Xrotation
								JOINT LeftFingerBase
								{
									OFFSET 0 0 0
									CHANNELS 3 Zrotation Yrotation Xrotation
									JOINT LeftHandIndex1
									{
										OFFSET 0.69320 -0.00000 0.00000
										CHANNELS 3 Zrotation Yrotation Xrotation
										End Site
										{
											OFFSET 0.55888 -0.00000 0.00000
										}
									}
								}
								JOINT LThumb
								{
									OFFSET 0 0 0
									CHANNELS 3 Zrotation Yrotation Xrotation
									End Site
									{
										OFFSET 0.56741 -0.00000 0.56741
									}
								}
							}
						}
					}
				}
				JOINT RightShoulder
				{
					OFFSET 0 0 0
					CHANNELS 3 Zrotation Yrotation Xrotation
					JOINT RightArm
					{
						OFFSET -3.28999 1.24191 -0.26899
						CHANNELS 3 Zrotation Yrotation Xrotation
						JOINT RightForeArm
						{
							OFFSET -4.64462 -0.00000 0.00000
							CHANNELS 3 Zrotation Yrotation Xrotation
							JOINT RightHand
							{
								OFFSET -3.40703 -0.00000 0.00000
								CHANNELS 3 Zrotation Yrotation Xrotation
								JOINT RightFingerBase
								{
									OFFSET 0 0 0
									CHANNELS 3 Zrotation Yrotation Xrotation
									JOINT RightHandIndex1
									{
										OFFSET -0.61958 -0.00000 0.00000
										CHANNELS 3 Zrotation Yrotation Xrotation
										End Site
										{
											OFFSET -0.49952 -0.00000 0.00000
										}
									}
								}
								JOINT RThumb
								{
									OFFSET 0 0 0
									CHANNELS 3 Zrotation Yrotation Xrotation
									End Site
									{
										OFFSET -0.50715 -0.00000 0.50715
									}
								}
							}
						}
					}
				}
			}
		}
	}
}
MOTION
Frames: 14
Frame Time: .0083333
48.0989 16.9214 1.1224 369.6300 -3.9797 353.3120 0.0000 0.0000 0.0000 -32.3773 5.7048 10.1603 0.1143 2.1794 6.0018 0.5224 1.4272 -14.2450 0.0434 -1.3451 -3.6988 0.0000 0.0000 0.0000 6.6019 1.3995 -17.2147 -7.8422 -16.0020 51.9923 -0.5498 0.0724 -13.9858 -1.0625 -6.5536 18.3993 -13.3654 1.2380 9.3353 -3.0090 0.4003 3.7508 4.2775 0.1138 -1.3278 1.8334 0.5540 -20.3868 0.9523 -0.1646 27.5662 0.0236 0.2473 12.5499 -0.0000 0.0000 0.0000 -81.8466 -10.5189 44.0005 21.6078 -32.5310 -6.3737 -0.0000 -0.0000 4.5807 20.1030 -23.8312 -8.4121 -7.1250 0.0000 -0.0000 -5.6379 4.8933 5.1620 -0.0000 0.0000 0.0000 85.4249 -12.1290 22.3826 -13.0966 21.4285 -2.4885 0.0000 0.0000 17.0224 -6.3594 -29.7834 3.1686 7.1250 -0.0000 -0.0000 27.3617 -57.7451 -8.9803
48.0860 16.9168 1.2451 369.6710 -3.6936 353.4340 0.0000 0.0000 0.0000 -32.3042 5.9364 10.6471 0.1029 2.0684 5.6946 0.5438 1.1025 -14.3728 0.0812 -1.8385 -5.0595 0.0000 0.0000 0.0000 6.7712 1.5689 -17.5820 -7.1994 -15.4975 49.6243 -0.6011 -0.4551 -14.8197 -1.0745 -6.5892 18.5038 -13.6631 1.0971 9.3902 -2.9104 0.1777 3.7146 4.5686 0.0042 -1.3555 1.8095 0.5311 -20.4007 1.0287 -0.2153 27.5982 0.0485 0.2328 12.5658 0.0000 0.0000 0.0000 -81.8529 -10.9405 44.3726 21.9268 -32.8942 -6.5460 -0.0000 -0.0000 4.2877 19.5226 -24.1423 -8.2514 -7.1250 0.0000 -0.0000 -6.0241 4.6664 5.5454 0.0000 0.0000 0.0000 85.3845 -12.5884 21.7983 -13.0866 21.4139 -2.4848 0.0000 0.0000 16.7789 -6.4051 -30.0152 3.2141 7.1250 -0.0000 -0.0000 27.5021 -57.9587 -9.1755
48.0861 16.9050 1.3682 369.8330 -3.4417 353.7320 0.0000 0.0000 0.0000 -32.5003 5.9515 10.9396 0.0955 1.9930 5.4864 0.5751 0.7532 -14.6189 0.0804 -1.8292 -5.0338 0.0000 0.0000 0.0000 6.4396 0.9172 -18.5894 -6.5693 -14.9582 47.2260 -0.6176 -0.5867 -15.0708 -1.3167 -7.2680 20.5117 -13.8043 0.9510 9.2924 -2.9405 -0.0205 3.6144 4.6351 -0.0891 -1.3714 1.8999 0.4210 -20.5534 1.0083 -0.4076 27.7389 -0.0061 0.1564 12.6532 0.0000 -0.0000 0.0000 -81.7833 -11.3278 44.7242 22.2244 -33.2297 -6.7084 -0.0000 -0.0000 3.9919 19.0668 -24.5821 -8.1820 -7.1250 0.0000 -0.0000 -6.3433 4.2878 5.8882 0.0000 -0.0000 0.0000 85.3172 -13.1446 21.5339 -13.1847 21.5572 -2.5207 0.0000 0.0000 15.9091 -5.8065 -30.0036 2.9111 7.1250 -0.0000 -0.0000 28.0854 -57.8201 -9.2952
48.0877 16.8925 1.5045 370.0310 -3.4595 354.0110 0.0000 0.0000 0.0000 -32.6949 6.2795 11.1754 0.0876 1.9086 5.2530 0.5968 0.5396 -14.8009 0.1069 -2.1085 -5.8056 0.0000 0.0000 0.0000 6.7532 0.6456 -19.3178 -5.8909 -14.3217 44.5421 -0.5370 -2.9215 -15.2145 -0.1273 -2.3003 6.3363 -13.9621 0.8756 8.9996 -2.9730 -0.0909 3.5297 4.6943 -0.1263 -1.2847 1.9648 0.3581 -20.7020 1.0588 -0.5462 27.9026 -0.0205 0.1112 12.7500 -0.0000 -0.0000 0.0000 -81.6764 -11.6333 45.2642 22.5739 -33.6195 -6.9009 -0.0000 -0.0000 3.3936 18.9298 -24.6999 -8.1556 -7.1250 0.0000 -0.0000 -6.4377 4.1889 5.9889 -0.0000 -0.0000 0.0000 85.1571 -13.9077 21.7336 -13.4840 21.9922 -2.6318 0.0000 0.0000 14.6904 -5.7068 -30.1271 2.8715 7.1250 -0.0000 -0.0000 28.2842 -57.9066 -9.4284
48.0823 16.8927 1.6440 370.2050 -3.4953 353.9720 0.0000 0.0000 0.0000 -32.7239 6.9557 11.6705 0.0790 1.8134 4.9903 0.6020 0.2853 -14.7665 0.1769 -2.7096 -7.4711 0.0000 0.0000 0.0000 6.7734 0.2381 -19.5615 -5.2145 -13.6213 41.7412 -0.5330 -3.5628 -15.5518 -0.0113 -0.6862 1.8856 -14.2349 0.8589 8.9939 -2.9304 -0.1339 3.5336 4.8930 -0.1512 -1.2650 1.8640 0.3455 -20.7440 1.2106 -0.5800 27.9539 0.0496 0.1070 12.7804 0.0000 0.0000 0.0000 -81.6641 -11.8855 45.8078 22.9653 -34.0508 -7.1188 -0.0000 -0.0000 2.8407 19.1724 -24.5252 -8.2126 -7.1250 0.0000 -0.0000 -6.2735 4.3292 5.8177 0.0000 0.0000 0.0000 85.1630 -14.3900 21.1867 -13.5206 22.0452 -2.6455 0.0000 0.0000 14.2794 -6.8345 -30.1163 3.4415 7.1250 -0.0000 -0.0000 27.1571 -58.1405 -9.1697
48.0819 16.8895 1.7844 370.2750 -3.3835 354.0700 0.0000 0.0000 0.0000 -32.7624 7.2047 12.1865 0.0706 1.7147 4.7179 0.6110 0.0833 -14.8015 0.2363 -3.1283 -8.6361 0.0000 0.0000 0.0000 6.9500 0.1212 -19.4577 -4.4701 -12.7609 38.4800 -0.5355 -4.4714 -16.1814 -0.0003 0.1129 -0.3103 -14.3307 0.7717 8.8760 -2.8667 -0.2345 3.5264 5.0227 -0.2066 -1.1860 1.7985 0.3033 -20.7377 1.2413 -0.6258 27.8663 0.0645 0.0828 12.7435 0.0000 0.0000 0.0000 -81.7554 -12.1703 46.0898 23.3018 -34.4171 -7.3081 -0.0000 -0.0000 2.7460 19.2060 -24.4849 -8.2154 -7.1250 0.0000 -0.0000 -6.2492 4.3652 5.7907 0.0000 0.0000 0.0000 85.4087 -14.5279 19.4746 -13.2454 21.6458 -2.5431 0.0000 0.0000 14.6262 -8.3443 -29.2336 4.0972 7.1250 -0.0000 -0.0000 24.9588 -57.6791 -8.0807
48.0868 16.8788 1.9223 370.2870 -3.1549 354.3050 0.0000 0.0000 0.0000 -32.9266 6.9318 12.7304 0.0638 1.6298 4.4836 0.6370 -0.0062 -15.0818 0.1827 -2.7533 -7.5928 0.0000 0.0000 0.0000 6.7833 -0.7539 -19.9433 -3.8816 -12.0012 35.7362 -0.5902 -3.7282 -16.3475 -0.0706 -1.7140 4.7160 -14.3083 0.5983 8.6854 -2.8131 -0.4298 3.4800 5.0852 -0.3070 -1.0921 1.8183 0.2989 -20.7121 1.2795 -0.6497 27.7707 0.0714 0.0784 12.6998 0.0000 -0.0000 0.0000 -81.8621 -12.4831 46.1125 23.5386 -34.6725 -7.4425 -0.0000 -0.0000 2.6771 18.8766 -24.6947 -8.1296 -7.1250 0.0000 -0.0000 -6.4698 4.2028 6.0175 0.0000 -0.0000 0.0000 85.5650 -14.5938 16.7818 -13.0339 21.3368 -2.4656 0.0000 0.0000 17.8198 -6.3058 -29.4004 3.1051 7.1250 -0.0000 -0.0000 27.1133 -57.3962 -8.6576
48.0720 16.8628 2.0578 370.4220 -3.2676 354.6300 0.0000 0.0000 0.0000 -33.0856 6.8865 13.0496 0.0577 1.5504 4.2648 0.6842 -0.2521 -15.5480 0.0847 -1.8770 -5.1658 0.0000 0.0000 0.0000 7.0488 -0.3611 -19.8729 -3.2639 -11.1104 32.6533 -0.5987 -4.3332 -16.8360 -0.0854 -1.8848 5.1873 -14.5383 0.4952 8.3063 -2.8530 -0.5231 3.4079 5.1746 -0.3614 -0.9359 1.9990 0.3249 -20.7821 1.3101 -0.6895 27.7450 0.0457 0.0842 12.7042 -0.0000 -0.0000 0.0000 -81.6491 -12.8037 46.2016 23.7579 -34.9072 -7.5676 -0.0000 -0.0000 2.2337 18.7881 -24.8982 -8.1507 -7.1250 0.0000 -0.0000 -6.5419 4.0085 6.1092 -0.0000 -0.0000 0.0000 85.4880 -15.0377 18.4847 -13.1153 21.4560 -2.4953 0.0000 0.0000 14.3166 -9.3445 -30.6064 4.7891 7.1250 -0.0000 -0.0000 25.0273 -59.1305 -8.9906
48.0647 16.8535 2.1983 370.5740 -3.2567 354.8310 0.0000 0.0000 0.0000 -33.2010 7.1006 13.3733 0.0544 1.5053 4.1404 0.7289 -0.5945 -15.9418 0.0730 -1.7432 -4.7965 0.0000 0.0000 0.0000 6.8961 -0.0329 -19.4270 -2.6386 -10.0857 29.2547 -0.7009 -3.4206 -17.4200 -0.7510 -5.5351 15.4412 -14.6820 0.3395 8.0080 -2.9129 -0.6860 3.3985 5.2004 -0.4547 -0.7451 2.1221 0.3556 -20.8561 1.3972 -0.7191 27.6653 0.0531 0.0953 12.6881 -0.0000 0.0000 0.0000 -81.3867 -13.0233 46.3879 24.0597 -35.2274 -7.7410 -0.0000 -0.0000 1.7573 19.0344 -24.8459 -8.2482 -7.1250 0.0000 -0.0000 -6.3866 4.0224 5.9607 -0.0000 0.0000 0.0000 85.6127 -15.1990 18.0694 -13.0434 21.3508 -2.4691 0.0000 0.0000 14.1244 -9.5277 -30.8305 4.9164 7.1250 -0.0000 -0.0000 25.0246 -59.3728 -9.1363
48.0607 16.8453 2.3438 370.6510 -3.2604 354.9500 0.0000 0.0000 0.0000 -33.1258 7.6122 13.6608 0.0529 1.4842 4.0821 0.7577 -0.8116 -16.1930 0.1521 -2.5133 -6.9265 0.0000 0.0000 0.0000 7.0927 -0.6295 -19.2980 -2.1216 -9.1148 26.1552 -0.6449 -3.8129 -17.0317 -0.6873 -5.3003 14.7670 -14.6912 0.1938 7.8055 -2.9239 -0.8448 3.3665 5.2041 -0.5390 -0.6351 2.1334 0.3825 -20.7985 1.5127 -0.7173 27.5402 0.0952 0.1110 12.6269 -0.0000 -0.0000 0.0000 -81.3473 -13.0291 46.4221 24.3999 -35.5843 -7.9380 -0.0000 -0.0000 1.5008 19.1777 -24.7577 -8.2870 -7.1250 0.0000 -0.0000 -6.2909 4.0896 5.8624 -0.0000 -0.0000 0.0000 85.7642 -15.6570 17.3645 -13.2644 21.6733 -2.5501 0.0000 0.0000 14.2590 -9.7490 -30.6136 5.0004 7.1250 -0.0000 -0.0000 24.6205 -59.2281 -8.8912
48.0536 16.8320 2.4889 370.7000 -3.3076 355.1090 0.0000 0.0000 0.0000 -33.0629 7.8739 13.9826 0.0523 1.4754 4.0580 0.7963 -1.1113 -16.5217 0.1292 -2.3169 -6.3823 0.0000 0.0000 0.0000 7.3900 -0.8528 -19.0305 -1.6673 -8.1356 23.1267 -0.5840 -4.2025 -16.5791 -0.9186 -6.1067 17.0942 -14.7162 0.0659 7.5843 -2.8497 -0.9806 3.2949 5.3044 -0.6087 -0.5592 1.9716 0.3765 -20.6856 1.5380 -0.6702 27.3962 0.1392 0.1153 12.5459 0.0000 0.0000 0.0000 -81.6178 -13.0427 46.2137 24.5973 -35.7895 -8.0532 -0.0000 -0.0000 1.4366 19.1347 -24.9927 -8.3397 -7.1250 0.0000 -0.0000 -6.3385 3.8555 5.9350 0.0000 0.0000 0.0000 85.5572 -16.1277 17.6039 -13.4436 21.9338 -2.6167 0.0000 0.0000 13.6731 -10.3888 -30.5821 5.3288 7.1250 -0.0000 -0.0000 23.9394 -59.3449 -8.6946
48.0486 16.8163 2.6331 370.8670 -3.3020 355.2800 0.0000 0.0000 0.0000 -33.2751 7.8024 14.3913 0.0526 1.4805 4.0721 0.8437 -1.4297 -16.9317 0.0696 -1.7018 -4.6822 0.0000 0.0000 0.0000 7.4764 -2.0973 -19.3818 -1.3268 -7.2947 20.5915 -0.4991 -3.8017 -15.2794 -1.2356 -7.0490 19.8607 -15.0783 0.0507 7.4265 -2.6389 -1.0016 3.2105 5.7266 -0.6210 -0.5419 1.6881 0.2909 -20.6833 1.5195 -0.6843 27.2927 0.1775 0.0754 12.5032 0.0000 0.0000 0.0000 -82.2178 -13.1874 46.1936 24.6637 -35.8583 -8.0921 -0.0000 -0.0000 1.5342 19.3175 -25.3290 -8.5288 -7.1250 0.0000 -0.0000 -6.2582 3.4805 5.9026 0.0000 0.0000 0.0000 85.1047 -16.6421 18.1619 -13.6391 22.2164 -2.6901 0.0000 0.0000 12.5272 -10.8626 -30.5084 5.5640 7.1250 -0.0000 -0.0000 23.3929 -59.3857 -8.5053
48.0427 16.7989 2.7763 371.1760 -3.3125 355.4240 0.0000 0.0000 0.0000 -33.7400 7.5252 14.8540 0.0550 1.5131 4.1618 0.8983 -1.6183 -17.4382 0.0356 -1.2175 -3.3476 0.0000 0.0000 0.0000 7.5320 -3.4003 -19.6456 -1.0184 -6.4201 18.0084 -0.3757 -3.9728 -13.7285 -1.3313 -7.3065 20.6267 -15.3489 0.0869 7.2303 -2.7335 -0.9371 3.1993 5.7664 -0.5963 -0.4517 1.9118 0.2256 -20.7694 1.5485 -0.8668 27.1948 0.1201 0.0217 12.4819 0.0000 0.0000 0.0000 -82.1458 -13.3940 46.6512 24.8433 -36.0434 -8.1975 -0.0000 -0.0000 1.3418 19.7503 -25.3786 -8.7483 -7.1250 0.0000 -0.0000 -5.9996 3.3571 5.6696 0.0000 0.0000 0.0000 85.4107 -16.9259 17.7191 -13.7667 22.4003 -2.7386 0.0000 0.0000 11.9665 -11.2903 -30.0971 5.7171 7.1250 -0.0000 -0.0000 22.6282 -59.1074 -8.0567
48.0332 16.7795 2.9190 371.4040 -3.3395 355.5510 0.0000 0.0000 0.0000 -33.9750 7.3970 15.2410 0.0598 1.5785 4.3422 0.9517 -2.1341 -17.8424 0.0014 -0.2425 -0.6663 0.0000 0.0000 0.0000 7.8538 -3.6184 -19.3576 -0.7438 -5.5092 15.3667 -0.2529 -5.3207 -12.9462 -1.2425 -7.0680 19.9170 -15.5071 0.0601 7.0796 -2.8369 -0.9597 3.1566 5.7423 -0.6091 -0.4060 1.9585 0.0617 -20.8579 1.6589 -1.1547 27.1103 0.1060 -0.0865 12.4671 -0.0000 -0.0000 0.0000 -81.9072 -13.4349 47.1366 25.0977 -36.3037 -8.3477 -0.0000 -0.0000 0.9066 20.1111 -25.3400 -8.9067 -7.1250 0.0000 -0.0000 -5.7764 3.3355 5.4587 -0.0000 -0.0000 0.0000 85.7677 -17.1719 17.1493 -13.8729 22.5527 -2.7792 0.0000 0.0000 11.7576 -11.6374 -29.9220 5.8656 7.1250 -0.0000 -0.0000 22.1357 -59.0250 -7.8261
